<svg width="49" height="49" viewBox="0 0 49 49" fill="none" xmlns="http://www.w3.org/2000/svg">
<g opacity="0.16" clip-path="url(#clip0_2_114)">
<path d="M19.2282 8.01907V41.0291H31.7571C40.8723 41.0291 48.2621 33.6394 48.2621 24.5241C48.2621 15.4088 40.8723 8.01907 31.7571 8.01907H19.2282ZM23.3545 36.9029V12.1453H31.7571C38.5937 12.1453 44.1358 17.6874 44.1358 24.5241C44.1358 31.3608 38.5937 36.9029 31.7571 36.9029H23.3545ZM0.247437 11.6952C0.247437 12.2424 0.464801 12.7671 0.851713 13.154C1.23863 13.541 1.76339 13.7583 2.31057 13.7583H12.9638C13.511 13.7583 14.0358 13.541 14.4227 13.154C14.8096 12.7671 15.0269 12.2424 15.0269 11.6952C15.0269 11.148 14.8096 10.6233 14.4227 10.2363C14.0358 9.84943 13.511 9.63207 12.9638 9.63207H2.31057C1.76339 9.63207 1.23863 9.84943 0.851713 10.2363C0.464801 10.6233 0.247437 11.148 0.247437 11.6952H0.247437ZM2.31057 22.3109H12.9638C13.511 22.3109 14.0358 22.0936 14.4227 21.7067C14.8096 21.3197 15.0269 20.795 15.0269 20.2478C15.0269 19.7006 14.8096 19.1759 14.4227 18.789C14.0358 18.402 13.511 18.1847 12.9638 18.1847H2.31057C1.76339 18.1847 1.23863 18.402 0.851713 18.789C0.464801 19.1759 0.247437 19.7006 0.247437 20.2478C0.247437 20.795 0.464801 21.3197 0.851713 21.7067C1.23863 22.0936 1.76339 22.3109 2.31057 22.3109ZM2.31057 30.8635H12.9638C13.511 30.8635 14.0358 30.6462 14.4227 30.2593C14.8096 29.8724 15.0269 29.3476 15.0269 28.8004C15.0269 28.2532 14.8096 27.7285 14.4227 27.3416C14.0358 26.9547 13.511 26.7373 12.9638 26.7373H2.31057C1.76339 26.7373 1.23863 26.9547 0.851713 27.3416C0.464801 27.7285 0.247437 28.2532 0.247437 28.8004C0.247437 29.3476 0.464801 29.8724 0.851713 30.2593C1.23863 30.6462 1.76339 30.8635 2.31057 30.8635ZM2.31057 39.4162H12.9638C13.511 39.4162 14.0358 39.1988 14.4227 38.8119C14.8096 38.425 15.0269 37.9002 15.0269 37.353C15.0269 36.8058 14.8096 36.2811 14.4227 35.8942C14.0358 35.5073 13.511 35.2899 12.9638 35.2899H2.31057C1.76339 35.2899 1.23863 35.5073 0.851713 35.8942C0.464801 36.2811 0.247437 36.8058 0.247437 37.353C0.247437 37.9002 0.464801 38.425 0.851713 38.8119C1.23863 39.1988 1.76339 39.4162 2.31057 39.4162Z" fill="white"/>
</g>
<defs>
<clipPath id="clip0_2_114">
<rect width="48" height="48" fill="white" transform="translate(0.247437 0.524109)"/>
</clipPath>
</defs>
</svg>
