<svg width="49" height="49" viewBox="0 0 49 49" fill="none" xmlns="http://www.w3.org/2000/svg">
<g opacity="0.16" clip-path="url(#clip0_2_110)">
<path d="M18.6753 7.13V42.7667H30.3582C40.1464 42.7667 48.0832 34.7892 48.0832 24.9484C48.0832 15.1075 40.1455 7.13 30.3573 7.13H18.6736H18.6753ZM23.1061 38.3121V11.5846H30.3582C37.6993 11.5846 43.6515 17.5682 43.6515 24.9484C43.6515 32.3285 37.6993 38.3121 30.3582 38.3121H23.1061ZM0.752563 14.7495L14.51 11.0416L15.4807 14.6841L1.72239 18.392L0.752563 14.7495ZM0.752563 24.7277L14.51 21.0198L15.4807 24.6624L1.72239 28.3703L0.752563 24.7277ZM0.752563 34.706L14.51 30.9981L15.4807 34.6407L1.72239 38.3486L0.752563 34.706Z" fill="white"/>
</g>
<defs>
<clipPath id="clip0_2_110">
<rect width="47.4949" height="47.4949" fill="white" transform="translate(0.752563 0.776672)"/>
</clipPath>
</defs>
</svg>
