<svg width="49" height="48" viewBox="0 0 49 48" fill="none" xmlns="http://www.w3.org/2000/svg">
<path d="M27.35 25.05C26.7095 25.05 26.102 25.1895 25.5545 25.4385L21.05 22.35L23.744 26.967C23.2579 27.6852 22.9987 28.5328 23 29.4C23 31.803 24.947 33.75 27.35 33.75C29.753 33.75 31.7 31.803 31.7 29.4C31.7 26.997 29.753 25.05 27.35 25.05ZM14.0855 15.2355L13.0535 6.2235L10.1765 9.099L6.788 5.712L4.562 7.938L7.949 11.3265L5.0735 14.2035L14.0855 15.2355Z" fill="#6B4339"/>
<path d="M27.35 25.05C26.7095 25.05 26.102 25.1895 25.5545 25.4385L21.05 22.35L23.744 26.967C23.2579 27.6852 22.9987 28.5328 23 29.4C23 31.803 24.947 33.75 27.35 33.75C29.753 33.75 31.7 31.803 31.7 29.4C31.7 26.997 29.753 25.05 27.35 25.05ZM14.0855 15.2355L13.0535 6.2235L10.1765 9.099L6.788 5.712L4.562 7.938L7.949 11.3265L5.0735 14.2035L14.0855 15.2355Z" fill="#E2BDAD"/>
<path d="M27.35 25.05C26.7095 25.05 26.102 25.1895 25.5545 25.4385L21.05 22.35L23.744 26.967C23.2579 27.6852 22.9987 28.5328 23 29.4C23 31.803 24.947 33.75 27.35 33.75C29.753 33.75 31.7 31.803 31.7 29.4C31.7 26.997 29.753 25.05 27.35 25.05ZM14.0855 15.2355L13.0535 6.2235L10.1765 9.099L6.788 5.712L4.562 7.938L7.949 11.3265L5.0735 14.2035L14.0855 15.2355Z" fill="#6B4339"/>
<path d="M45.2 29.1C45.2 23.5305 42.6365 18.5505 38.627 15.2745L38.5985 15.246L38.5955 15.249C35.741 12.927 32.1605 11.4675 28.25 11.2725V11.25H26.45V11.2725C22.526 11.469 18.932 12.9375 16.073 15.2745L16.0445 15.246L15.7205 15.57C11.9135 18.846 9.5 23.697 9.5 29.1C9.5 33.186 10.88 37.0905 13.409 40.248L13.4075 40.2495L13.4285 40.2735C13.733 40.6515 14.051 41.019 14.3885 41.3745L14.408 41.355L14.615 41.5845L19.841 36.852L18.632 35.5185L15.1895 38.6355C13.0595 35.922 11.9 32.5875 11.9 29.1C11.9 28.7475 11.9135 28.3965 11.936 28.05H16.85V26.25H12.164C12.7475 23.13 14.2715 20.337 16.4315 18.1785L19.757 21.504L21.0305 20.2305L17.78 16.98C20.1935 15.0705 23.189 13.8645 26.4515 13.6755V18.3H28.2515V13.677C31.5005 13.8645 34.484 15.06 36.8915 16.9545L33.6155 20.2305L34.8875 21.504L38.24 18.1515C40.4135 20.3145 41.9495 23.1165 42.536 26.25H37.793V28.05H42.764C42.788 28.3965 42.8 28.7475 42.8 29.1C42.8 32.6295 41.609 36.0075 39.425 38.7375L35.9615 35.6985L34.775 37.0515L40.0745 41.7015L41.261 40.3485L41.231 40.323C43.799 37.152 45.2 33.216 45.2 29.1Z" fill="#6B4339"/>
<path d="M45.2 29.1C45.2 23.5305 42.6365 18.5505 38.627 15.2745L38.5985 15.246L38.5955 15.249C35.741 12.927 32.1605 11.4675 28.25 11.2725V11.25H26.45V11.2725C22.526 11.469 18.932 12.9375 16.073 15.2745L16.0445 15.246L15.7205 15.57C11.9135 18.846 9.5 23.697 9.5 29.1C9.5 33.186 10.88 37.0905 13.409 40.248L13.4075 40.2495L13.4285 40.2735C13.733 40.6515 14.051 41.019 14.3885 41.3745L14.408 41.355L14.615 41.5845L19.841 36.852L18.632 35.5185L15.1895 38.6355C13.0595 35.922 11.9 32.5875 11.9 29.1C11.9 28.7475 11.9135 28.3965 11.936 28.05H16.85V26.25H12.164C12.7475 23.13 14.2715 20.337 16.4315 18.1785L19.757 21.504L21.0305 20.2305L17.78 16.98C20.1935 15.0705 23.189 13.8645 26.4515 13.6755V18.3H28.2515V13.677C31.5005 13.8645 34.484 15.06 36.8915 16.9545L33.6155 20.2305L34.8875 21.504L38.24 18.1515C40.4135 20.3145 41.9495 23.1165 42.536 26.25H37.793V28.05H42.764C42.788 28.3965 42.8 28.7475 42.8 29.1C42.8 32.6295 41.609 36.0075 39.425 38.7375L35.9615 35.6985L34.775 37.0515L40.0745 41.7015L41.261 40.3485L41.231 40.323C43.799 37.152 45.2 33.216 45.2 29.1Z" fill="#E2BDAD"/>
<path d="M45.2 29.1C45.2 23.5305 42.6365 18.5505 38.627 15.2745L38.5985 15.246L38.5955 15.249C35.741 12.927 32.1605 11.4675 28.25 11.2725V11.25H26.45V11.2725C22.526 11.469 18.932 12.9375 16.073 15.2745L16.0445 15.246L15.7205 15.57C11.9135 18.846 9.5 23.697 9.5 29.1C9.5 33.186 10.88 37.0905 13.409 40.248L13.4075 40.2495L13.4285 40.2735C13.733 40.6515 14.051 41.019 14.3885 41.3745L14.408 41.355L14.615 41.5845L19.841 36.852L18.632 35.5185L15.1895 38.6355C13.0595 35.922 11.9 32.5875 11.9 29.1C11.9 28.7475 11.9135 28.3965 11.936 28.05H16.85V26.25H12.164C12.7475 23.13 14.2715 20.337 16.4315 18.1785L19.757 21.504L21.0305 20.2305L17.78 16.98C20.1935 15.0705 23.189 13.8645 26.4515 13.6755V18.3H28.2515V13.677C31.5005 13.8645 34.484 15.06 36.8915 16.9545L33.6155 20.2305L34.8875 21.504L38.24 18.1515C40.4135 20.3145 41.9495 23.1165 42.536 26.25H37.793V28.05H42.764C42.788 28.3965 42.8 28.7475 42.8 29.1C42.8 32.6295 41.609 36.0075 39.425 38.7375L35.9615 35.6985L34.775 37.0515L40.0745 41.7015L41.261 40.3485L41.231 40.323C43.799 37.152 45.2 33.216 45.2 29.1Z" fill="#6B4339"/>
</svg>
