<svg width="48" height="48" viewBox="0 0 48 48" fill="none" xmlns="http://www.w3.org/2000/svg">
<path d="M11.655 24C11.655 27.1388 12.9019 30.1491 15.1214 32.3686C17.3409 34.5881 20.3512 35.835 23.49 35.835C26.6288 35.835 29.6391 34.5881 31.8586 32.3686C34.0781 30.1491 35.325 27.1388 35.325 24C35.325 20.8611 34.0781 17.8509 31.8586 15.6314C29.6391 13.4119 26.6288 12.165 23.49 12.165C20.3512 12.165 17.3409 13.4119 15.1214 15.6314C12.9019 17.8509 11.655 20.8611 11.655 24Z" fill="#FFA565"/>
<path d="M23.91 4.20001C24.91 4.20001 25.41 4.70001 25.41 5.70001V8.53501C25.41 9.53501 24.91 10.035 23.91 10.035C22.91 10.035 22.41 9.53501 22.41 8.53501V5.70001C22.41 4.70001 22.91 4.20001 23.91 4.20001Z" fill="#FFA565"/>
<path d="M37.5685 10.0637C38.2866 10.7596 38.2977 11.4666 37.6018 12.1847L35.6289 14.2206C34.933 14.9387 34.2259 14.9498 33.5078 14.2539C32.7897 13.558 32.7786 12.851 33.4745 12.1329L35.4474 10.097C36.1433 9.37886 36.8503 9.36775 37.5685 10.0637Z" fill="#FFA565"/>
<path d="M43.3007 23.7946C43.3319 24.7941 42.8478 25.3095 41.8483 25.3407L39.0147 25.4293C38.0152 25.4605 37.4998 24.9764 37.4686 23.9769C37.4373 22.9773 37.9215 22.462 38.921 22.4307L41.7546 22.3422C42.7541 22.3109 43.2695 22.7951 43.3007 23.7946Z" fill="#FFA565"/>
<path d="M37.852 37.6139C37.1788 38.3534 36.4725 38.3866 35.733 37.7134L33.6365 35.8051C32.897 35.1319 32.8638 34.4256 33.5369 33.6861C34.2101 32.9466 34.9164 32.9134 35.6559 33.5865L37.7524 35.4949C38.4919 36.168 38.5251 36.8743 37.852 37.6139Z" fill="#FFA565"/>
<path d="M24.3418 43.7815C23.3437 43.8441 22.8134 43.3764 22.7508 42.3784L22.5733 39.549C22.5106 38.5509 22.9783 38.0206 23.9764 37.958C24.9744 37.8954 25.5048 38.3631 25.5674 39.3611L25.7449 42.1905C25.8075 43.1886 25.3398 43.7189 24.3418 43.7815Z" fill="#FFA565"/>
<path d="M10.3246 38.7787C9.56428 38.1291 9.50892 37.4242 10.1585 36.6639L12.0001 34.5085C12.6496 33.7482 13.3546 33.6928 14.1149 34.3424C14.8752 34.992 14.9305 35.6969 14.2809 36.4572L12.4394 38.6126C11.7898 39.3729 11.0849 39.4283 10.3246 38.7787Z" fill="#FFA565"/>
<path d="M3.76326 25.4522C3.6695 24.4566 4.12042 23.912 5.11602 23.8182L7.93853 23.5524C8.93412 23.4586 9.4788 23.9095 9.57256 24.9051C9.66632 25.9007 9.2154 26.4454 8.21981 26.5392L5.3973 26.805C4.4017 26.8987 3.85703 26.4478 3.76326 25.4522Z" fill="#FFA565"/>
<path d="M8.31266 11.2873C8.93817 10.5071 9.64104 10.4298 10.4212 11.0553L12.6332 12.8286C13.4134 13.4541 13.4907 14.157 12.8652 14.9372C12.2397 15.7174 11.5368 15.7948 10.7566 15.1692L8.5447 13.3959C7.76449 12.7704 7.68714 12.0675 8.31266 11.2873Z" fill="#FFA565"/>
</svg>
